<?xml version="1.0" encoding="utf-8"?>
<!-- Generator: Adobe Illustrator 27.0.0, SVG Export Plug-In . SVG Version: 6.00 Build 0)  -->
<svg version="1.1" id="Layer_1" xmlns="http://www.w3.org/2000/svg" xmlns:xlink="http://www.w3.org/1999/xlink" x="0px" y="0px"
	 viewBox="0 0 564 94.5" style="enable-background:new 0 0 564 94.5;" xml:space="preserve">
<g>
	<g>
		<g>
			<path d="M29.7,77.2c-4.8,0-9.6,0-14.3,0c0-20,0-39.9,0-59.9c8.4,0,16.8,0,25.3,0c15.5,0,24.5,7.2,24.5,20.1s-9,20.2-24.5,20.2
				c-3.6,0-7.3,0-10.9,0C29.7,64.2,29.7,70.7,29.7,77.2z M40.1,46.2c7.9,0,11.1-2.9,11.1-8.6C51.2,32,48,29,40.1,29
				c-3.5,0-6.9,0-10.4,0c0,5.7,0,11.5,0,17.2C33.2,46.2,36.6,46.2,40.1,46.2z"/>
			<path d="M82.1,17.4c0,16,0,32,0,48c10.1,0,20.3,0,30.4,0c0,4,0,7.9,0,11.9c-14.9,0-29.9,0-44.8,0c0-20,0-39.9,0-59.9
				C72.4,17.4,77.3,17.4,82.1,17.4z"/>
			<path d="M154.2,17.4c8,20,16.1,39.9,24.1,59.9c-5.1,0-10.3,0-15.4,0c-1.7-4.3-3.4-8.6-5.1-12.9c-8,0-16.1,0-24.1,0
				c-1.7,4.3-3.4,8.6-5,12.9c-4.8,0-9.6,0-14.4,0c8-20,16-39.9,23.9-59.9C143.5,17.4,148.8,17.4,154.2,17.4z M137.8,53.5
				c5.3,0,10.5,0,15.8,0c-2.6-6.6-5.1-13.1-7.7-19.7c-0.1,0-0.3,0-0.4,0C143,40.4,140.4,46.9,137.8,53.5z"/>
			<path d="M194.5,17.4c0,20,0,39.9,0,59.9c-4.8,0-9.6,0-14.4,0c0-20,0-39.9,0-59.9C184.8,17.4,189.6,17.4,194.5,17.4z"/>
			<path d="M240.2,53.3c0-12,0-23.9,0-35.9c4.4,0,8.8,0,13.2,0c0,20,0,39.9,0,59.9c-3.8,0-7.7,0-11.5,0
				c-9.2-12.7-18.5-25.5-27.7-38.2c0,12.7,0,25.5,0,38.2c-4.4,0-8.9,0-13.3,0c0-20,0-39.9,0-59.9c4.6,0,9.2,0,13.9,0
				C223.2,29.4,231.7,41.3,240.2,53.3z"/>
			<path d="M318.5,17.4c0,12.8,0,25.6,0,38.4c0,15.7-9.7,22.6-23.6,22.6c-14.8,0-23.8-8.6-24-24.1c4.6-0.2,9.2-0.4,13.9-0.6
				c0.5,8.1,3.6,12.5,10.1,12.5c6.4,0,9.2-3.7,9.2-11.6c0-12.4,0-24.8,0-37.2C308.9,17.4,313.7,17.4,318.5,17.4z"/>
			<path d="M354.6,17.4c8,20,16.1,39.9,24.1,59.9c-5.1,0-10.3,0-15.4,0c-1.7-4.3-3.4-8.6-5.1-12.9c-8,0-16.1,0-24.1,0
				c-1.7,4.3-3.4,8.6-5,12.9c-4.8,0-9.6,0-14.4,0c8-20,16-39.9,23.9-59.9C343.9,17.4,349.3,17.4,354.6,17.4z M338.3,53.5
				c5.3,0,10.5,0,15.8,0c-2.6-6.6-5.1-13.1-7.7-19.7c-0.1,0-0.3,0-0.4,0C343.4,40.4,340.9,46.9,338.3,53.5z"/>
			<path d="M407.1,77.2c-4.1-14.7-8.2-29.5-12.3-44.2c-0.1,0-0.3,0-0.4,0c0,14.7,0,29.5,0,44.2c-4.4,0-8.9,0-13.3,0
				c0-20,0-39.9,0-59.9c7.5,0,14.9,0,22.4,0c3.5,13.3,7,26.7,10.5,40c0.1,0,0.2,0,0.3,0c3.4-13.3,6.7-26.7,10.1-40
				c7.3,0,14.6,0,21.9,0c0,20,0,39.9,0,59.9c-4.8,0-9.6,0-14.4,0c0-14.7,0-29.5,0-44.2c-0.1,0-0.3,0-0.4,0
				c-4.1,14.7-8.1,29.5-12.2,44.2C415.3,77.2,411.2,77.2,407.1,77.2z"/>
			<path d="M496.6,77.2c-15.4,0-30.8,0-46.2,0c0-20,0-39.9,0-59.9c15.1,0,30.2,0,45.3,0c0,4,0,7.9,0,11.9c-10.4,0-20.8,0-31.2,0
				c0,3.9,0,7.9,0,11.8c8.1,0,16.2,0,24.2,0c0,3.9,0,7.8,0,11.7c-8.1,0-16.2,0-24.2,0c0,4.2,0,8.4,0,12.6c10.7,0,21.3,0,32,0
				C496.6,69.2,496.6,73.2,496.6,77.2z"/>
			<path d="M509.8,55.5c0.6,8.3,6.7,11.6,14.2,11.6c6.4,0,10.4-2.5,10.4-6.5s-3.5-4.9-8.7-6c-3.7-0.7-7.5-1.3-11.2-2
				c-9.5-1.8-16.2-7.1-16.2-17.3c0-11.8,9.2-19.1,23.8-19.1c16.2,0,25.1,8.1,25.4,21.4c-4.4,0.1-8.9,0.3-13.3,0.4
				c-0.4-7-5.2-10.5-12.2-10.5c-6.1,0-9.5,2.5-9.5,6.6c0,3.4,2.7,4.7,7,5.5c3.7,0.7,7.5,1.3,11.2,2c12.3,2.2,17.9,8.3,17.9,18.1
				c0,12.3-10.7,18.7-24.4,18.7c-16,0-27.4-7.9-27.4-22.4C501,55.8,505.4,55.6,509.8,55.5z"/>
		</g>
	</g>
</g>
</svg>
